#N canvas 836 325 450 300 10;
#X obj 80 25 udpreceive 10101;
#X obj 81 58 unpackOSC;
#X floatatom 58 167 9 0 0 0 - - -, f 9;
#X obj 84 91 routeOSC /esp;
#X obj 82 136 route /accelX /accelY /accelZ /gyroX /gyroY /gyroZ;
#X floatatom 127 168 5 0 0 0 - - -, f 5;
#X floatatom 179 168 7 0 0 0 - - -, f 7;
#X floatatom 244 169 5 0 0 0 - - -, f 5;
#X floatatom 299 168 5 0 0 0 - - -, f 5;
#X floatatom 351 169 5 0 0 0 - - -, f 5;
#X text 189 23 listening on port 10101;
#X text 180 92 get the bundle;
#X text 238 118 route accelerometer and gyro;
#X connect 0 0 1 0;
#X connect 1 0 3 0;
#X connect 3 0 4 0;
#X connect 4 0 2 0;
#X connect 4 1 5 0;
#X connect 4 2 6 0;
#X connect 4 3 7 0;
#X connect 4 4 8 0;
#X connect 4 5 9 0;
